<svg width="38" height="38" viewBox="0 0 38 38" fill="none" xmlns="http://www.w3.org/2000/svg">
<path d="M38 19C38 29.4934 29.4936 38 19 38C8.50635 38 0 29.4934 0 19C0 8.50661 8.50635 0 19 0C29.4936 0 38 8.50661 38 19Z" fill="white"/>
<path d="M18.0157 8.5675C9.76511 12.8577 1.06671 19.305 7.10974 28.7193C6.23728 24.7336 7.56214 19.5949 18.0157 14.3192V8.5675Z" fill="#091028"/>
<path d="M18.0157 8.5675C9.76511 12.8577 1.06671 19.305 7.10974 28.7193C6.23728 24.7336 7.56214 19.5949 18.0157 14.3192V8.5675Z" fill="black" fill-opacity="0.2"/>
<path d="M18.0157 8.5675C9.76511 12.8577 1.06671 19.305 7.10974 28.7193C6.23728 24.7336 7.56214 19.5949 18.0157 14.3192V8.5675Z" fill="black" fill-opacity="0.2"/>
<path d="M20.4766 7.33839V13.1527C22.0172 12.4643 23.7205 11.7748 25.6025 11.0865V4.94509C25.0659 5.1974 24.4882 5.46365 23.8792 5.74439C22.8224 6.23125 21.6716 6.76176 20.4766 7.33839Z" fill="#091028"/>
<path d="M20.4766 7.33839V13.1527C22.0172 12.4643 23.7205 11.7748 25.6025 11.0865V4.94509C25.0659 5.1974 24.4882 5.46365 23.8792 5.74439C22.8224 6.23125 21.6716 6.76176 20.4766 7.33839Z" fill="black" fill-opacity="0.2"/>
<path d="M20.4766 7.33839V13.1527C22.0172 12.4643 23.7205 11.7748 25.6025 11.0865V4.94509C25.0659 5.1974 24.4882 5.46365 23.8792 5.74439C22.8224 6.23125 21.6716 6.76176 20.4766 7.33839Z" fill="black" fill-opacity="0.2"/>
<path d="M18.0171 16.8243C11.041 20.3246 3.93188 26.0588 9.98981 33.4739C9.2447 30.7423 9.15946 26.2574 18.0171 22.1374V16.8243Z" fill="#091028"/>
<path d="M18.0171 16.8243C11.041 20.3246 3.93188 26.0588 9.98981 33.4739C9.2447 30.7423 9.15946 26.2574 18.0171 22.1374V16.8243Z" fill="black" fill-opacity="0.2"/>
<path d="M18.0171 16.8243C11.041 20.3246 3.93188 26.0588 9.98981 33.4739C9.2447 30.7423 9.15946 26.2574 18.0171 22.1374V16.8243Z" fill="black" fill-opacity="0.2"/>
<path d="M20.4766 21.0947V15.6711C22.411 14.8233 24.2048 14.1641 25.5461 13.7064V19.4075C23.645 19.9548 21.9633 20.5192 20.4766 21.0947Z" fill="#091028"/>
<path d="M20.4766 21.0947V15.6711C22.411 14.8233 24.2048 14.1641 25.5461 13.7064V19.4075C23.645 19.9548 21.9633 20.5192 20.4766 21.0947Z" fill="black" fill-opacity="0.2"/>
<path d="M20.4766 21.0947V15.6711C22.411 14.8233 24.2048 14.1641 25.5461 13.7064V19.4075C23.645 19.9548 21.9633 20.5192 20.4766 21.0947Z" fill="black" fill-opacity="0.2"/>
<path d="M18.0172 24.4225C12.4805 26.9165 7.76545 30.8548 12.158 36.8484C11.1644 33.6291 12.6228 31.065 18.0172 29.1516V24.4225Z" fill="#091028"/>
<path d="M18.0172 24.4225C12.4805 26.9165 7.76545 30.8548 12.158 36.8484C11.1644 33.6291 12.6228 31.065 18.0172 29.1516V24.4225Z" fill="black" fill-opacity="0.2"/>
<path d="M18.0172 24.4225C12.4805 26.9165 7.76545 30.8548 12.158 36.8484C11.1644 33.6291 12.6228 31.065 18.0172 29.1516V24.4225Z" fill="black" fill-opacity="0.2"/>
<path d="M20.4766 28.3962V23.4163C22.3042 22.7363 24.0902 22.2005 25.5461 21.7877V27.3195C23.6332 27.6452 21.9489 28.0041 20.4766 28.3962Z" fill="#091028"/>
<path d="M20.4766 28.3962V23.4163C22.3042 22.7363 24.0902 22.2005 25.5461 21.7877V27.3195C23.6332 27.6452 21.9489 28.0041 20.4766 28.3962Z" fill="black" fill-opacity="0.2"/>
<path d="M20.4766 28.3962V23.4163C22.3042 22.7363 24.0902 22.2005 25.5461 21.7877V27.3195C23.6332 27.6452 21.9489 28.0041 20.4766 28.3962Z" fill="black" fill-opacity="0.2"/>
</svg>
