<svg width="159" height="108" viewBox="0 0 159 108" fill="none" xmlns="http://www.w3.org/2000/svg">
<path d="M26.1094 10.3501C55.4695 -20.0684 103.064 -20.0684 132.424 10.3501C161.784 40.7686 161.784 90.0786 132.424 120.497C103.064 150.916 55.4695 150.916 26.1094 120.497C-3.25067 90.0786 -3.25067 40.7686 26.1094 10.3501" stroke="white" stroke-width="8" stroke-linejoin="round"/>
<path d="M79.3334 48.1158C70.0451 48.1158 62.5611 55.8697 62.5611 65.4235C62.5611 74.9774 70.0451 82.7312 79.2665 82.7312C88.488 82.7312 95.972 74.9774 95.972 65.4235C96.0388 55.8697 88.5548 48.1158 79.3334 48.1158" stroke="white" stroke-width="8" stroke-linejoin="round"/>
<path d="M125.358 56.6144C125.909 59.4702 126.252 62.3952 126.252 65.424" stroke="white" stroke-width="8" stroke-linejoin="round"/>
<path d="M79.2662 16.7454C82.1896 16.7454 85.0129 17.0916 87.7693 17.6714" stroke="white" stroke-width="8" stroke-linejoin="round"/>
<path d="M32.2817 65.4235C32.2817 38.5447 53.3222 16.7456 79.2658 16.7456" stroke="white" stroke-width="8" stroke-linejoin="round"/>
<path d="M91.1274 53.1354L112.51 30.9815" stroke="white" stroke-width="8" stroke-linejoin="round"/>
</svg>
