<svg width="24" height="24" viewBox="0 0 24 24" fill="none" xmlns="http://www.w3.org/2000/svg">
<path d="M12.94 11.06L5.87 18.13" stroke="#78FF97" stroke-width="1.5" stroke-linecap="round" stroke-linejoin="round"/>
<path d="M6.63295 12.999L3.16995 12.181C2.78895 12.091 2.65495 11.618 2.93095 11.341L5.68495 8.587C5.86995 8.402 6.12095 8.296 6.38395 8.294L9.48895 8.267" stroke="#78FF97" stroke-width="1.5" stroke-linecap="round" stroke-linejoin="round"/>
<path fill-rule="evenodd" clip-rule="evenodd" d="M19.8789 8.97499L20.6869 5.08699C20.9069 4.02899 19.9709 3.09299 18.9129 3.31299L15.0249 4.12099C13.8799 4.35899 12.8299 4.92599 12.0039 5.75299L8.81395 8.94199C7.59695 10.159 6.80495 11.737 6.55495 13.44L6.54395 13.513C6.38595 14.6 6.74995 15.697 7.52595 16.474V16.474C8.30195 17.25 9.39995 17.614 10.4869 17.455L10.5599 17.444C12.2629 17.195 13.8409 16.402 15.0579 15.185L18.2469 11.996C19.0739 11.17 19.6409 10.12 19.8789 8.97499V8.97499Z" stroke="#78FF97" stroke-width="1.5" stroke-linecap="round" stroke-linejoin="round"/>
<path d="M13.4 4.714C15.711 6.29 17.71 8.289 19.286 10.6" stroke="#78FF97" stroke-width="1.5" stroke-linecap="round" stroke-linejoin="round"/>
<path d="M11 17.367L11.818 20.83C11.908 21.211 12.381 21.345 12.658 21.069L15.412 18.315C15.597 18.13 15.703 17.879 15.705 17.616L15.732 14.511" stroke="#78FF97" stroke-width="1.5" stroke-linecap="round" stroke-linejoin="round"/>
</svg>
